<?xml version="1.0" standalone="no"?><!DOCTYPE svg PUBLIC "-//W3C//DTD SVG 1.1//EN" "http://www.w3.org/Graphics/SVG/1.1/DTD/svg11.dtd"><svg width="100%" height="100%" viewBox="0 0 337 695" version="1.1" xmlns="http://www.w3.org/2000/svg" xmlns:xlink="http://www.w3.org/1999/xlink" xml:space="preserve" style="fill-rule:evenodd;clip-rule:evenodd;stroke-linejoin:round;stroke-miterlimit:1.41421;"><path d="M201.748,104.167l135.171,135.171l-135.171,135.172l0,-270.343Z" style="fill:#5a6379;fill-rule:nonzero;"/><path d="M0.586,104.168l191.162,-0.001l0,191.162l-191.162,-191.161Z" style="fill:#5cb5cd;fill-rule:nonzero;"/><path d="M0,247.51l0,-130.343l65.172,65.172l-65.172,65.171Z" style="fill:#f2ae00;fill-rule:nonzero;"/><path d="M190.334,398.667l0,-93.338l-94.995,94.995l0,93.338l94.995,-94.995Z" style="fill:#7cd32b;fill-rule:nonzero;"/><path d="M2,94.167l94.167,-94.167l94.167,94.167l-188.334,0Z" style="fill:#5cb5cd;fill-rule:nonzero;"/><path d="M95.338,694.836l0.001,-94.995l94.995,0l0,94.995l-94.996,0Z" style="fill:#7cd32b;fill-rule:nonzero;"/><path d="M190.334,505.662l-92.167,0l92.167,-92.167l0,92.167Z" style="fill:#f2ae00;fill-rule:nonzero;"/></svg>