<?xml version="1.0" standalone="no"?>
<!DOCTYPE svg
  PUBLIC '-//W3C//DTD SVG 1.1//EN'
  'http://www.w3.org/Graphics/SVG/1.1/DTD/svg11.dtd'>
<svg height="100%" version="1.1" viewBox="0 0 160 320" width="100%" xml:space="preserve" xmlns="http://www.w3.org/2000/svg" xmlns:xlink="http://www.w3.org/1999/xlink">
	<g style="fill-rule:evenodd;clip-rule:evenodd;stroke-linejoin:miter;stroke-miterlimit:1.41421;stroke:#fff;stroke-width:4;">
		<path d="M157.255,117.49l-64,-64l0,128l64,-64Z" style="fill:#60b5cc;"/>
		<path d="M93.255,53.49l-90.51,0l90.51,90.51l0,-90.51Z" style="fill:#5a6378;"/>
		<path d="M2.745,53.49l45.255,-45.255l45.255,45.255l-90.51,0Z" style="fill:#5eb5cc;"/>
		<path d="M93.255,189.255l0,45.255l-45.255,0l45.255,-45.255Z" style="fill:#f0ad08;"/>
		<path d="M2.745,53.49l32,32l-32,32l0,-64Z" style="fill:#f0ad08;"/>
		<path d="M93.255,266.51l0,45.255l-45.255,0l0,-45.255l45.255,0Z" style="fill:#7ed13b;"/>
		<path d="M93.255,144l-45.255,45.255l0,45.255l45.255,-45.255l0,-45.255Z" style="fill:#7ed13b;"/>
	</g>
	<g style="display:none;fill-rule:evenodd;clip-rule:evenodd;stroke-linejoin:miter;stroke-miterlimit:1.41421;fill:#999;stroke:#f00;stroke-width:1;">
		<path d="M 0 0 L 0 128 L 64 64 Z"/>
		<path d="M 0 128 L 128 128 L 64 64 Z"/>
		<path d="M 0 0 L 32 32 L 96 32 L 64 0 Z"/>
		<path d="M 32 32 L 64 64 L 96 32 Z"/>
		<path d="M 64 64 L 96 96 L 128 64 L 96 32 Z"/>
		<path d="M 96 96 L 128 128 L 128 64 Z"/>
		<path d="M 64 0 L 128 64 L 128 0 Z"/>
	</g>
</svg>